<svg xmlns="http://www.w3.org/2000/svg" width="503.337" height="609.256" viewBox="0 0 503.337 609.256">
  <g id="Groupe_35691" data-name="Groupe 35691" transform="translate(-784.436 -1185.982) rotate(28)">
    <g id="Groupe_35690" data-name="Groupe 35690" transform="translate(1473 560)">
      <path id="Tracé_37709" data-name="Tracé 37709" d="M2239.624,707.169c64.275-224.958-40.322-307.246-67.256-324.2-26.932,16.953-131.528,99.241-67.256,324.2,0,0-127.175,26.9-48.913,215.22h12.229s-14.674-102.719,53.8-127.175l17.12,58.7h7.337l2.446,14.674H2195.6l2.446-14.674h7.337l17.12-58.7c68.479,24.457,53.805,127.175,53.805,127.175h12.229C2366.8,734.072,2239.624,707.169,2239.624,707.169Z" transform="translate(-2030.743 -382.97)" fill="#fff"/>
      <path id="Tracé_37710" data-name="Tracé 37710" d="M2178.2,443.806c-20.355-35.347-45.059-53.771-56.28-60.836-11.224,7.066-35.927,25.489-56.283,60.836Z" transform="translate(-1980.293 -382.97)" fill="#68bae5"/>
    </g>
  </g>
</svg>
