<svg xmlns="http://www.w3.org/2000/svg" width="559.851" height="580.95" viewBox="0 0 559.851 580.95">
  <g id="Groupe_35650" data-name="Groupe 35650" transform="matrix(-0.656, 0.755, -0.755, -0.656, 6083.254, 3826.534)">
    <g id="Groupe_35647" data-name="Groupe 35647" transform="translate(883 6551.001)">
      <path id="Tracé_37525" data-name="Tracé 37525" d="M891.2,331.047a6.1,6.1,0,0,0-9.516,5.059h0v0a6.1,6.1,0,1,0,12.207,0v0h0A6.1,6.1,0,0,0,891.2,331.047Z" transform="translate(-881.68 -187.418)" fill="#0e77ff"/>
      <path id="Tracé_37526" data-name="Tracé 37526" d="M902.018,331.047a6.1,6.1,0,0,0-9.516,5.059h0v0a6.1,6.1,0,1,0,12.207,0v0h0A6.1,6.1,0,0,0,902.018,331.047Z" transform="translate(-856.855 -187.418)" fill="#0e77ff"/>
      <path id="Tracé_37527" data-name="Tracé 37527" d="M912.84,331.047a6.1,6.1,0,0,0-9.516,5.059h0v0a6.1,6.1,0,1,0,12.208,0v0h0A6.1,6.1,0,0,0,912.84,331.047Z" transform="translate(-832.03 -187.418)" fill="#0e77ff"/>
      <path id="Tracé_37528" data-name="Tracé 37528" d="M923.662,331.047a6.1,6.1,0,0,0-9.516,5.059h0v0a6.1,6.1,0,0,0,12.207,0v0h0A6.1,6.1,0,0,0,923.662,331.047Z" transform="translate(-807.205 -187.418)" fill="#0e77ff"/>
      <path id="Tracé_37529" data-name="Tracé 37529" d="M934.486,331.047a6.105,6.105,0,0,0-9.519,5.059h0v0a6.105,6.105,0,0,0,12.211,0v0h0A6.1,6.1,0,0,0,934.486,331.047Z" transform="translate(-782.382 -187.418)" fill="#0e77ff"/>
      <path id="Tracé_37530" data-name="Tracé 37530" d="M945.305,331.047a6.1,6.1,0,0,0-9.516,5.059h0v0a6.1,6.1,0,1,0,12.207,0v0h0A6.1,6.1,0,0,0,945.305,331.047Z" transform="translate(-757.557 -187.418)" fill="#0e77ff"/>
      <path id="Tracé_37531" data-name="Tracé 37531" d="M956.127,331.047a6.1,6.1,0,0,0-9.516,5.059h0v0a6.1,6.1,0,1,0,12.207,0v0h0A6.1,6.1,0,0,0,956.127,331.047Z" transform="translate(-732.732 -187.418)" fill="#0e77ff"/>
      <path id="Tracé_37532" data-name="Tracé 37532" d="M887.783,340.825a6.1,6.1,0,1,0,6.1,6.1A6.105,6.105,0,0,0,887.783,340.825Z" transform="translate(-881.68 -162.593)" fill="#0e77ff"/>
      <path id="Tracé_37533" data-name="Tracé 37533" d="M898.605,340.825a6.1,6.1,0,1,0,6.1,6.1A6.105,6.105,0,0,0,898.605,340.825Z" transform="translate(-856.855 -162.593)" fill="#0e77ff"/>
      <path id="Tracé_37534" data-name="Tracé 37534" d="M909.428,340.825a6.1,6.1,0,1,0,6.1,6.1A6.105,6.105,0,0,0,909.428,340.825Z" transform="translate(-832.03 -162.593)" fill="#0e77ff"/>
      <path id="Tracé_37535" data-name="Tracé 37535" d="M920.25,340.825a6.1,6.1,0,1,0,6.1,6.1A6.1,6.1,0,0,0,920.25,340.825Z" transform="translate(-807.205 -162.593)" fill="#0e77ff"/>
      <path id="Tracé_37536" data-name="Tracé 37536" d="M931.074,340.825a6.1,6.1,0,1,0,6.1,6.1A6.106,6.106,0,0,0,931.074,340.825Z" transform="translate(-782.382 -162.593)" fill="#0e77ff"/>
      <path id="Tracé_37537" data-name="Tracé 37537" d="M941.893,340.825a6.1,6.1,0,1,0,6.1,6.1A6.105,6.105,0,0,0,941.893,340.825Z" transform="translate(-757.557 -162.593)" fill="#0e77ff"/>
      <path id="Tracé_37538" data-name="Tracé 37538" d="M952.715,340.825a6.1,6.1,0,1,0,6.1,6.1A6.1,6.1,0,0,0,952.715,340.825Z" transform="translate(-732.732 -162.593)" fill="#0e77ff"/>
      <path id="Tracé_37539" data-name="Tracé 37539" d="M887.783,351.647a6.1,6.1,0,1,0,6.1,6.1A6.105,6.105,0,0,0,887.783,351.647Z" transform="translate(-881.68 -137.768)" fill="#0e77ff"/>
      <path id="Tracé_37540" data-name="Tracé 37540" d="M898.605,351.647a6.1,6.1,0,1,0,6.1,6.1A6.105,6.105,0,0,0,898.605,351.647Z" transform="translate(-856.855 -137.768)" fill="#0e77ff"/>
      <path id="Tracé_37541" data-name="Tracé 37541" d="M909.428,351.647a6.1,6.1,0,1,0,6.1,6.1A6.105,6.105,0,0,0,909.428,351.647Z" transform="translate(-832.03 -137.768)" fill="#0e77ff"/>
      <path id="Tracé_37542" data-name="Tracé 37542" d="M920.25,351.647a6.1,6.1,0,1,0,6.1,6.1A6.1,6.1,0,0,0,920.25,351.647Z" transform="translate(-807.205 -137.768)" fill="#0e77ff"/>
      <path id="Tracé_37543" data-name="Tracé 37543" d="M931.074,351.647a6.1,6.1,0,1,0,6.1,6.1A6.106,6.106,0,0,0,931.074,351.647Z" transform="translate(-782.382 -137.768)" fill="#0e77ff"/>
      <path id="Tracé_37544" data-name="Tracé 37544" d="M941.893,351.647a6.1,6.1,0,1,0,6.1,6.1A6.105,6.105,0,0,0,941.893,351.647Z" transform="translate(-757.557 -137.768)" fill="#0e77ff"/>
      <path id="Tracé_37545" data-name="Tracé 37545" d="M952.715,351.647a6.1,6.1,0,1,0,6.1,6.1A6.1,6.1,0,0,0,952.715,351.647Z" transform="translate(-732.732 -137.768)" fill="#0e77ff"/>
      <path id="Tracé_37546" data-name="Tracé 37546" d="M887.783,362.469a6.1,6.1,0,1,0,6.1,6.1A6.1,6.1,0,0,0,887.783,362.469Z" transform="translate(-881.68 -112.943)" fill="#0e77ff"/>
      <path id="Tracé_37547" data-name="Tracé 37547" d="M898.605,362.469a6.1,6.1,0,1,0,6.1,6.1A6.1,6.1,0,0,0,898.605,362.469Z" transform="translate(-856.855 -112.943)" fill="#0e77ff"/>
      <path id="Tracé_37548" data-name="Tracé 37548" d="M909.428,362.469a6.1,6.1,0,1,0,6.1,6.1A6.1,6.1,0,0,0,909.428,362.469Z" transform="translate(-832.03 -112.943)" fill="#0e77ff"/>
      <path id="Tracé_37549" data-name="Tracé 37549" d="M920.25,362.469a6.1,6.1,0,1,0,6.1,6.1A6.1,6.1,0,0,0,920.25,362.469Z" transform="translate(-807.205 -112.943)" fill="#0e77ff"/>
      <path id="Tracé_37550" data-name="Tracé 37550" d="M931.074,362.469a6.1,6.1,0,1,0,6.1,6.1A6.1,6.1,0,0,0,931.074,362.469Z" transform="translate(-782.382 -112.943)" fill="#0e77ff"/>
      <path id="Tracé_37551" data-name="Tracé 37551" d="M941.893,362.469a6.1,6.1,0,1,0,6.1,6.1A6.1,6.1,0,0,0,941.893,362.469Z" transform="translate(-757.557 -112.943)" fill="#0e77ff"/>
      <path id="Tracé_37552" data-name="Tracé 37552" d="M952.715,362.469a6.1,6.1,0,1,0,6.1,6.1A6.1,6.1,0,0,0,952.715,362.469Z" transform="translate(-732.732 -112.943)" fill="#0e77ff"/>
      <path id="Tracé_37553" data-name="Tracé 37553" d="M887.783,373.29a6.105,6.105,0,1,0,6.1,6.107A6.106,6.106,0,0,0,887.783,373.29Z" transform="translate(-881.68 -88.12)" fill="#0e77ff"/>
      <path id="Tracé_37554" data-name="Tracé 37554" d="M898.605,373.29a6.105,6.105,0,1,0,6.1,6.107A6.106,6.106,0,0,0,898.605,373.29Z" transform="translate(-856.855 -88.12)" fill="#0e77ff"/>
      <path id="Tracé_37555" data-name="Tracé 37555" d="M909.428,373.29a6.105,6.105,0,1,0,6.1,6.107A6.106,6.106,0,0,0,909.428,373.29Z" transform="translate(-832.03 -88.12)" fill="#0e77ff"/>
      <path id="Tracé_37556" data-name="Tracé 37556" d="M920.25,373.29a6.105,6.105,0,1,0,6.1,6.107A6.1,6.1,0,0,0,920.25,373.29Z" transform="translate(-807.205 -88.12)" fill="#0e77ff"/>
      <path id="Tracé_37557" data-name="Tracé 37557" d="M931.074,373.29a6.105,6.105,0,1,0,6.1,6.107A6.107,6.107,0,0,0,931.074,373.29Z" transform="translate(-782.382 -88.12)" fill="#0e77ff"/>
      <path id="Tracé_37558" data-name="Tracé 37558" d="M941.893,373.29A6.105,6.105,0,1,0,948,379.4,6.106,6.106,0,0,0,941.893,373.29Z" transform="translate(-757.557 -88.12)" fill="#0e77ff"/>
      <path id="Tracé_37559" data-name="Tracé 37559" d="M952.715,373.29a6.105,6.105,0,1,0,6.1,6.107A6.106,6.106,0,0,0,952.715,373.29Z" transform="translate(-732.732 -88.12)" fill="#0e77ff"/>
      <path id="Tracé_37560" data-name="Tracé 37560" d="M887.783,286.716a6.1,6.1,0,1,0,6.1,6.1A6.105,6.105,0,0,0,887.783,286.716Z" transform="translate(-881.68 -286.716)" fill="#0e77ff"/>
      <path id="Tracé_37561" data-name="Tracé 37561" d="M898.605,286.716a6.1,6.1,0,1,0,6.1,6.1A6.105,6.105,0,0,0,898.605,286.716Z" transform="translate(-856.855 -286.716)" fill="#0e77ff"/>
      <path id="Tracé_37562" data-name="Tracé 37562" d="M909.428,286.716a6.1,6.1,0,1,0,6.1,6.1A6.105,6.105,0,0,0,909.428,286.716Z" transform="translate(-832.03 -286.716)" fill="#0e77ff"/>
      <path id="Tracé_37563" data-name="Tracé 37563" d="M920.25,286.716a6.1,6.1,0,1,0,6.1,6.1A6.1,6.1,0,0,0,920.25,286.716Z" transform="translate(-807.205 -286.716)" fill="#0e77ff"/>
      <path id="Tracé_37564" data-name="Tracé 37564" d="M931.074,286.716a6.1,6.1,0,1,0,6.1,6.1A6.106,6.106,0,0,0,931.074,286.716Z" transform="translate(-782.382 -286.716)" fill="#0e77ff"/>
      <path id="Tracé_37565" data-name="Tracé 37565" d="M941.893,286.716a6.1,6.1,0,1,0,6.1,6.1A6.105,6.105,0,0,0,941.893,286.716Z" transform="translate(-757.557 -286.716)" fill="#0e77ff"/>
      <path id="Tracé_37566" data-name="Tracé 37566" d="M952.715,286.716a6.1,6.1,0,1,0,6.1,6.1A6.1,6.1,0,0,0,952.715,286.716Z" transform="translate(-732.732 -286.716)" fill="#0e77ff"/>
      <path id="Tracé_37567" data-name="Tracé 37567" d="M887.783,297.538a6.1,6.1,0,1,0,6.1,6.1A6.105,6.105,0,0,0,887.783,297.538Z" transform="translate(-881.68 -261.891)" fill="#0e77ff"/>
      <path id="Tracé_37568" data-name="Tracé 37568" d="M898.605,297.538a6.1,6.1,0,1,0,6.1,6.1A6.105,6.105,0,0,0,898.605,297.538Z" transform="translate(-856.855 -261.891)" fill="#0e77ff"/>
      <path id="Tracé_37569" data-name="Tracé 37569" d="M909.428,297.538a6.1,6.1,0,1,0,6.1,6.1A6.105,6.105,0,0,0,909.428,297.538Z" transform="translate(-832.03 -261.891)" fill="#0e77ff"/>
      <path id="Tracé_37570" data-name="Tracé 37570" d="M920.25,297.538a6.1,6.1,0,1,0,6.1,6.1A6.1,6.1,0,0,0,920.25,297.538Z" transform="translate(-807.205 -261.891)" fill="#0e77ff"/>
      <path id="Tracé_37571" data-name="Tracé 37571" d="M931.074,297.538a6.1,6.1,0,1,0,6.1,6.1A6.106,6.106,0,0,0,931.074,297.538Z" transform="translate(-782.382 -261.891)" fill="#0e77ff"/>
      <path id="Tracé_37572" data-name="Tracé 37572" d="M941.893,297.538a6.1,6.1,0,1,0,6.1,6.1A6.105,6.105,0,0,0,941.893,297.538Z" transform="translate(-757.557 -261.891)" fill="#0e77ff"/>
      <path id="Tracé_37573" data-name="Tracé 37573" d="M952.715,297.538a6.1,6.1,0,1,0,6.1,6.1A6.105,6.105,0,0,0,952.715,297.538Z" transform="translate(-732.732 -261.891)" fill="#0e77ff"/>
      <path id="Tracé_37574" data-name="Tracé 37574" d="M887.783,308.36a6.1,6.1,0,1,0,6.1,6.1A6.105,6.105,0,0,0,887.783,308.36Z" transform="translate(-881.68 -237.066)" fill="#0e77ff"/>
      <path id="Tracé_37575" data-name="Tracé 37575" d="M898.605,308.36a6.1,6.1,0,1,0,6.1,6.1A6.105,6.105,0,0,0,898.605,308.36Z" transform="translate(-856.855 -237.066)" fill="#0e77ff"/>
      <path id="Tracé_37576" data-name="Tracé 37576" d="M909.428,308.36a6.1,6.1,0,1,0,6.1,6.1A6.105,6.105,0,0,0,909.428,308.36Z" transform="translate(-832.03 -237.066)" fill="#0e77ff"/>
      <path id="Tracé_37577" data-name="Tracé 37577" d="M920.25,308.36a6.1,6.1,0,1,0,6.1,6.1A6.1,6.1,0,0,0,920.25,308.36Z" transform="translate(-807.205 -237.066)" fill="#0e77ff"/>
      <path id="Tracé_37578" data-name="Tracé 37578" d="M931.074,308.36a6.1,6.1,0,1,0,6.1,6.1A6.106,6.106,0,0,0,931.074,308.36Z" transform="translate(-782.382 -237.066)" fill="#0e77ff"/>
      <path id="Tracé_37579" data-name="Tracé 37579" d="M941.893,308.36a6.1,6.1,0,1,0,6.1,6.1A6.105,6.105,0,0,0,941.893,308.36Z" transform="translate(-757.557 -237.066)" fill="#0e77ff"/>
      <path id="Tracé_37580" data-name="Tracé 37580" d="M952.715,308.36a6.1,6.1,0,1,0,6.1,6.1A6.105,6.105,0,0,0,952.715,308.36Z" transform="translate(-732.732 -237.066)" fill="#0e77ff"/>
      <path id="Tracé_37581" data-name="Tracé 37581" d="M887.783,319.182a6.1,6.1,0,1,0,6.1,6.1A6.1,6.1,0,0,0,887.783,319.182Z" transform="translate(-881.68 -212.241)" fill="#0e77ff"/>
      <path id="Tracé_37582" data-name="Tracé 37582" d="M898.605,319.182a6.1,6.1,0,1,0,6.1,6.1A6.1,6.1,0,0,0,898.605,319.182Z" transform="translate(-856.855 -212.241)" fill="#0e77ff"/>
      <path id="Tracé_37583" data-name="Tracé 37583" d="M909.428,319.182a6.1,6.1,0,1,0,6.1,6.1A6.1,6.1,0,0,0,909.428,319.182Z" transform="translate(-832.03 -212.241)" fill="#0e77ff"/>
      <path id="Tracé_37584" data-name="Tracé 37584" d="M920.25,319.182a6.1,6.1,0,1,0,6.1,6.1A6.1,6.1,0,0,0,920.25,319.182Z" transform="translate(-807.205 -212.241)" fill="#0e77ff"/>
      <path id="Tracé_37585" data-name="Tracé 37585" d="M931.074,319.182a6.1,6.1,0,1,0,6.1,6.1A6.1,6.1,0,0,0,931.074,319.182Z" transform="translate(-782.382 -212.241)" fill="#0e77ff"/>
      <path id="Tracé_37586" data-name="Tracé 37586" d="M941.893,319.182a6.1,6.1,0,1,0,6.1,6.1A6.1,6.1,0,0,0,941.893,319.182Z" transform="translate(-757.557 -212.241)" fill="#0e77ff"/>
      <path id="Tracé_37587" data-name="Tracé 37587" d="M952.715,319.182a6.1,6.1,0,1,0,6.1,6.1A6.1,6.1,0,0,0,952.715,319.182Z" transform="translate(-732.732 -212.241)" fill="#0e77ff"/>
      <path id="Tracé_37588" data-name="Tracé 37588" d="M968.6,332.694a6.12,6.12,0,0,0-1.647-1.647,6.1,6.1,0,0,0-9.516,5.059h0v0a6.1,6.1,0,0,0,12.207,0v0h0A6.079,6.079,0,0,0,968.6,332.694Z" transform="translate(-707.906 -187.418)" fill="#0e77ff"/>
      <path id="Tracé_37589" data-name="Tracé 37589" d="M977.771,331.047a6.1,6.1,0,0,0-9.516,5.059h0v0a6.1,6.1,0,0,0,12.207,0v0h0A6.1,6.1,0,0,0,977.771,331.047Z" transform="translate(-683.081 -187.418)" fill="#0e77ff"/>
      <path id="Tracé_37590" data-name="Tracé 37590" d="M988.592,331.047a6.1,6.1,0,0,0-9.516,5.059h0v0a6.1,6.1,0,1,0,12.207,0v0h0A6.1,6.1,0,0,0,988.592,331.047Z" transform="translate(-658.258 -187.418)" fill="#0e77ff"/>
      <path id="Tracé_37591" data-name="Tracé 37591" d="M999.414,331.047a6.1,6.1,0,0,0-9.516,5.059h0v0a6.1,6.1,0,1,0,12.207,0v0h0A6.1,6.1,0,0,0,999.414,331.047Z" transform="translate(-633.433 -187.418)" fill="#0e77ff"/>
      <path id="Tracé_37592" data-name="Tracé 37592" d="M1010.236,331.047a6.1,6.1,0,0,0-9.517,5.059h0v0a6.1,6.1,0,1,0,12.208,0v0h0A6.1,6.1,0,0,0,1010.236,331.047Z" transform="translate(-608.608 -187.418)" fill="#0e77ff"/>
      <path id="Tracé_37593" data-name="Tracé 37593" d="M1021.058,331.047a6.1,6.1,0,0,0-9.516,5.059h0v0a6.1,6.1,0,0,0,12.207,0v0h0A6.1,6.1,0,0,0,1021.058,331.047Z" transform="translate(-583.783 -187.418)" fill="#0e77ff"/>
      <path id="Tracé_37594" data-name="Tracé 37594" d="M1031.882,331.047a6.105,6.105,0,0,0-9.52,5.059h0v0a6.105,6.105,0,0,0,12.211,0v0h0A6.1,6.1,0,0,0,1031.882,331.047Z" transform="translate(-558.96 -187.418)" fill="#0e77ff"/>
      <path id="Tracé_37595" data-name="Tracé 37595" d="M1042.7,331.047a6.1,6.1,0,0,0-9.516,5.059h0v0a6.1,6.1,0,1,0,12.207,0v0h0A6.1,6.1,0,0,0,1042.7,331.047Z" transform="translate(-534.135 -187.418)" fill="#0e77ff"/>
      <path id="Tracé_37596" data-name="Tracé 37596" d="M964.765,340.95a6.032,6.032,0,0,0-1.229-.125,6.1,6.1,0,0,0,0,12.207,6.266,6.266,0,0,0,1.229-.122,6.106,6.106,0,0,0,0-11.96Z" transform="translate(-707.906 -162.593)" fill="#0e77ff"/>
      <path id="Tracé_37597" data-name="Tracé 37597" d="M974.358,340.825a6.1,6.1,0,1,0,6.1,6.1A6.1,6.1,0,0,0,974.358,340.825Z" transform="translate(-683.081 -162.593)" fill="#0e77ff"/>
      <path id="Tracé_37598" data-name="Tracé 37598" d="M985.18,340.825a6.1,6.1,0,1,0,6.1,6.1A6.105,6.105,0,0,0,985.18,340.825Z" transform="translate(-658.258 -162.593)" fill="#0e77ff"/>
      <path id="Tracé_37599" data-name="Tracé 37599" d="M996,340.825a6.1,6.1,0,1,0,6.1,6.1A6.105,6.105,0,0,0,996,340.825Z" transform="translate(-633.433 -162.593)" fill="#0e77ff"/>
      <path id="Tracé_37600" data-name="Tracé 37600" d="M1006.824,340.825a6.1,6.1,0,1,0,6.1,6.1A6.105,6.105,0,0,0,1006.824,340.825Z" transform="translate(-608.608 -162.593)" fill="#0e77ff"/>
      <path id="Tracé_37601" data-name="Tracé 37601" d="M1017.646,340.825a6.1,6.1,0,1,0,6.1,6.1A6.1,6.1,0,0,0,1017.646,340.825Z" transform="translate(-583.783 -162.593)" fill="#0e77ff"/>
      <path id="Tracé_37602" data-name="Tracé 37602" d="M1028.47,340.825a6.1,6.1,0,1,0,6.1,6.1A6.106,6.106,0,0,0,1028.47,340.825Z" transform="translate(-558.96 -162.593)" fill="#0e77ff"/>
      <path id="Tracé_37603" data-name="Tracé 37603" d="M1039.288,340.825a6.1,6.1,0,1,0,6.1,6.1A6.1,6.1,0,0,0,1039.288,340.825Z" transform="translate(-534.135 -162.593)" fill="#0e77ff"/>
      <path id="Tracé_37604" data-name="Tracé 37604" d="M964.765,351.772a6.03,6.03,0,0,0-1.229-.125,6.1,6.1,0,0,0,0,12.207,6.1,6.1,0,0,0,1.229-12.082Z" transform="translate(-707.906 -137.768)" fill="#0e77ff"/>
      <path id="Tracé_37605" data-name="Tracé 37605" d="M974.358,351.647a6.1,6.1,0,1,0,6.1,6.1A6.1,6.1,0,0,0,974.358,351.647Z" transform="translate(-683.081 -137.768)" fill="#0e77ff"/>
      <path id="Tracé_37606" data-name="Tracé 37606" d="M985.18,351.647a6.1,6.1,0,1,0,6.1,6.1A6.105,6.105,0,0,0,985.18,351.647Z" transform="translate(-658.258 -137.768)" fill="#0e77ff"/>
      <path id="Tracé_37607" data-name="Tracé 37607" d="M996,351.647a6.1,6.1,0,1,0,6.1,6.1A6.105,6.105,0,0,0,996,351.647Z" transform="translate(-633.433 -137.768)" fill="#0e77ff"/>
      <path id="Tracé_37608" data-name="Tracé 37608" d="M1006.824,351.647a6.1,6.1,0,1,0,6.1,6.1A6.105,6.105,0,0,0,1006.824,351.647Z" transform="translate(-608.608 -137.768)" fill="#0e77ff"/>
      <path id="Tracé_37609" data-name="Tracé 37609" d="M1017.646,351.647a6.1,6.1,0,1,0,6.1,6.1A6.1,6.1,0,0,0,1017.646,351.647Z" transform="translate(-583.783 -137.768)" fill="#0e77ff"/>
      <path id="Tracé_37610" data-name="Tracé 37610" d="M1028.47,351.647a6.1,6.1,0,1,0,6.1,6.1A6.106,6.106,0,0,0,1028.47,351.647Z" transform="translate(-558.96 -137.768)" fill="#0e77ff"/>
      <path id="Tracé_37611" data-name="Tracé 37611" d="M1039.288,351.647a6.1,6.1,0,1,0,6.1,6.1A6.1,6.1,0,0,0,1039.288,351.647Z" transform="translate(-534.135 -137.768)" fill="#0e77ff"/>
      <path id="Tracé_37612" data-name="Tracé 37612" d="M964.765,362.591a6.263,6.263,0,0,0-1.229-.122,6.1,6.1,0,0,0,0,12.207,6.03,6.03,0,0,0,1.229-.125,6.106,6.106,0,0,0,0-11.96Z" transform="translate(-707.906 -112.943)" fill="#0e77ff"/>
      <path id="Tracé_37613" data-name="Tracé 37613" d="M974.358,362.469a6.1,6.1,0,1,0,6.1,6.1A6.1,6.1,0,0,0,974.358,362.469Z" transform="translate(-683.081 -112.943)" fill="#0e77ff"/>
      <path id="Tracé_37614" data-name="Tracé 37614" d="M985.18,362.469a6.1,6.1,0,1,0,6.1,6.1A6.1,6.1,0,0,0,985.18,362.469Z" transform="translate(-658.258 -112.943)" fill="#0e77ff"/>
      <path id="Tracé_37615" data-name="Tracé 37615" d="M996,362.469a6.1,6.1,0,1,0,6.1,6.1A6.1,6.1,0,0,0,996,362.469Z" transform="translate(-633.433 -112.943)" fill="#0e77ff"/>
      <path id="Tracé_37616" data-name="Tracé 37616" d="M1006.824,362.469a6.1,6.1,0,1,0,6.1,6.1A6.1,6.1,0,0,0,1006.824,362.469Z" transform="translate(-608.608 -112.943)" fill="#0e77ff"/>
      <path id="Tracé_37617" data-name="Tracé 37617" d="M1017.646,362.469a6.1,6.1,0,1,0,6.1,6.1A6.1,6.1,0,0,0,1017.646,362.469Z" transform="translate(-583.783 -112.943)" fill="#0e77ff"/>
      <path id="Tracé_37618" data-name="Tracé 37618" d="M1028.47,362.469a6.1,6.1,0,1,0,6.1,6.1A6.1,6.1,0,0,0,1028.47,362.469Z" transform="translate(-558.96 -112.943)" fill="#0e77ff"/>
      <path id="Tracé_37619" data-name="Tracé 37619" d="M1039.288,362.469a6.1,6.1,0,1,0,6.1,6.1A6.1,6.1,0,0,0,1039.288,362.469Z" transform="translate(-534.135 -112.943)" fill="#0e77ff"/>
      <path id="Tracé_37620" data-name="Tracé 37620" d="M964.765,373.415a6.032,6.032,0,0,0-1.229-.125,6.105,6.105,0,0,0,0,12.211,6.024,6.024,0,0,0,1.229-.125,6.106,6.106,0,0,0,0-11.96Z" transform="translate(-707.906 -88.12)" fill="#0e77ff"/>
      <path id="Tracé_37621" data-name="Tracé 37621" d="M974.358,373.29a6.105,6.105,0,1,0,6.1,6.107A6.1,6.1,0,0,0,974.358,373.29Z" transform="translate(-683.081 -88.12)" fill="#0e77ff"/>
      <path id="Tracé_37622" data-name="Tracé 37622" d="M985.18,373.29a6.105,6.105,0,1,0,6.1,6.107A6.106,6.106,0,0,0,985.18,373.29Z" transform="translate(-658.258 -88.12)" fill="#0e77ff"/>
      <path id="Tracé_37623" data-name="Tracé 37623" d="M996,373.29a6.105,6.105,0,1,0,6.1,6.107A6.106,6.106,0,0,0,996,373.29Z" transform="translate(-633.433 -88.12)" fill="#0e77ff"/>
      <path id="Tracé_37624" data-name="Tracé 37624" d="M1006.824,373.29a6.105,6.105,0,1,0,6.1,6.107A6.106,6.106,0,0,0,1006.824,373.29Z" transform="translate(-608.608 -88.12)" fill="#0e77ff"/>
      <path id="Tracé_37625" data-name="Tracé 37625" d="M1017.646,373.29a6.105,6.105,0,1,0,6.1,6.107A6.1,6.1,0,0,0,1017.646,373.29Z" transform="translate(-583.783 -88.12)" fill="#0e77ff"/>
      <path id="Tracé_37626" data-name="Tracé 37626" d="M1028.47,373.29a6.105,6.105,0,1,0,6.1,6.107A6.107,6.107,0,0,0,1028.47,373.29Z" transform="translate(-558.96 -88.12)" fill="#0e77ff"/>
      <path id="Tracé_37627" data-name="Tracé 37627" d="M1039.288,373.29a6.105,6.105,0,1,0,6.1,6.107A6.106,6.106,0,0,0,1039.288,373.29Z" transform="translate(-534.135 -88.12)" fill="#0e77ff"/>
      <path id="Tracé_37628" data-name="Tracé 37628" d="M964.765,286.841a6.03,6.03,0,0,0-1.229-.125,6.1,6.1,0,0,0,0,12.207,6.273,6.273,0,0,0,1.229-.122,6.106,6.106,0,0,0,0-11.96Z" transform="translate(-707.906 -286.716)" fill="#0e77ff"/>
      <path id="Tracé_37629" data-name="Tracé 37629" d="M974.358,286.716a6.1,6.1,0,1,0,6.1,6.1A6.1,6.1,0,0,0,974.358,286.716Z" transform="translate(-683.081 -286.716)" fill="#0e77ff"/>
      <path id="Tracé_37630" data-name="Tracé 37630" d="M985.18,286.716a6.1,6.1,0,1,0,6.1,6.1A6.105,6.105,0,0,0,985.18,286.716Z" transform="translate(-658.258 -286.716)" fill="#0e77ff"/>
      <path id="Tracé_37631" data-name="Tracé 37631" d="M996,286.716a6.1,6.1,0,1,0,6.1,6.1A6.105,6.105,0,0,0,996,286.716Z" transform="translate(-633.433 -286.716)" fill="#0e77ff"/>
      <path id="Tracé_37632" data-name="Tracé 37632" d="M1006.824,286.716a6.1,6.1,0,1,0,6.1,6.1A6.105,6.105,0,0,0,1006.824,286.716Z" transform="translate(-608.608 -286.716)" fill="#0e77ff"/>
      <path id="Tracé_37633" data-name="Tracé 37633" d="M1017.646,286.716a6.1,6.1,0,1,0,6.1,6.1A6.1,6.1,0,0,0,1017.646,286.716Z" transform="translate(-583.783 -286.716)" fill="#0e77ff"/>
      <path id="Tracé_37634" data-name="Tracé 37634" d="M1028.47,286.716a6.1,6.1,0,1,0,6.1,6.1A6.106,6.106,0,0,0,1028.47,286.716Z" transform="translate(-558.96 -286.716)" fill="#0e77ff"/>
      <path id="Tracé_37635" data-name="Tracé 37635" d="M1039.288,298.923a6.1,6.1,0,1,0-6.1-6.1A6.1,6.1,0,0,0,1039.288,298.923Z" transform="translate(-534.135 -286.716)" fill="#0e77ff"/>
      <path id="Tracé_37636" data-name="Tracé 37636" d="M964.765,297.663a6.022,6.022,0,0,0-1.229-.125,6.1,6.1,0,0,0,0,12.207,6.275,6.275,0,0,0,1.229-.122,6.105,6.105,0,0,0,0-11.96Z" transform="translate(-707.906 -261.891)" fill="#0e77ff"/>
      <path id="Tracé_37637" data-name="Tracé 37637" d="M974.358,297.538a6.1,6.1,0,1,0,6.1,6.1A6.1,6.1,0,0,0,974.358,297.538Z" transform="translate(-683.081 -261.891)" fill="#0e77ff"/>
      <path id="Tracé_37638" data-name="Tracé 37638" d="M985.18,297.538a6.1,6.1,0,1,0,6.1,6.1A6.105,6.105,0,0,0,985.18,297.538Z" transform="translate(-658.258 -261.891)" fill="#0e77ff"/>
      <path id="Tracé_37639" data-name="Tracé 37639" d="M996,297.538a6.1,6.1,0,1,0,6.1,6.1A6.105,6.105,0,0,0,996,297.538Z" transform="translate(-633.433 -261.891)" fill="#0e77ff"/>
      <path id="Tracé_37640" data-name="Tracé 37640" d="M1006.824,297.538a6.1,6.1,0,1,0,6.1,6.1A6.105,6.105,0,0,0,1006.824,297.538Z" transform="translate(-608.608 -261.891)" fill="#0e77ff"/>
      <path id="Tracé_37641" data-name="Tracé 37641" d="M1017.646,297.538a6.1,6.1,0,1,0,6.1,6.1A6.1,6.1,0,0,0,1017.646,297.538Z" transform="translate(-583.783 -261.891)" fill="#0e77ff"/>
      <path id="Tracé_37642" data-name="Tracé 37642" d="M1028.47,297.538a6.1,6.1,0,1,0,6.1,6.1A6.106,6.106,0,0,0,1028.47,297.538Z" transform="translate(-558.96 -261.891)" fill="#0e77ff"/>
      <path id="Tracé_37643" data-name="Tracé 37643" d="M1039.288,297.538a6.1,6.1,0,1,0,6.1,6.1A6.105,6.105,0,0,0,1039.288,297.538Z" transform="translate(-534.135 -261.891)" fill="#0e77ff"/>
      <path id="Tracé_37644" data-name="Tracé 37644" d="M964.765,308.485a6.024,6.024,0,0,0-1.229-.125,6.1,6.1,0,0,0,0,12.207,6.03,6.03,0,0,0,1.229-.125,6.1,6.1,0,0,0,0-11.957Z" transform="translate(-707.906 -237.066)" fill="#0e77ff"/>
      <path id="Tracé_37645" data-name="Tracé 37645" d="M974.358,308.36a6.1,6.1,0,1,0,6.1,6.1A6.1,6.1,0,0,0,974.358,308.36Z" transform="translate(-683.081 -237.066)" fill="#0e77ff"/>
      <path id="Tracé_37646" data-name="Tracé 37646" d="M985.18,308.36a6.1,6.1,0,1,0,6.1,6.1A6.105,6.105,0,0,0,985.18,308.36Z" transform="translate(-658.258 -237.066)" fill="#0e77ff"/>
      <path id="Tracé_37647" data-name="Tracé 37647" d="M996,308.36a6.1,6.1,0,1,0,6.1,6.1A6.105,6.105,0,0,0,996,308.36Z" transform="translate(-633.433 -237.066)" fill="#0e77ff"/>
      <path id="Tracé_37648" data-name="Tracé 37648" d="M1006.824,308.36a6.1,6.1,0,1,0,6.1,6.1A6.105,6.105,0,0,0,1006.824,308.36Z" transform="translate(-608.608 -237.066)" fill="#0e77ff"/>
      <path id="Tracé_37649" data-name="Tracé 37649" d="M1017.646,308.36a6.1,6.1,0,1,0,6.1,6.1A6.1,6.1,0,0,0,1017.646,308.36Z" transform="translate(-583.783 -237.066)" fill="#0e77ff"/>
      <path id="Tracé_37650" data-name="Tracé 37650" d="M1028.47,308.36a6.1,6.1,0,1,0,6.1,6.1A6.106,6.106,0,0,0,1028.47,308.36Z" transform="translate(-558.96 -237.066)" fill="#0e77ff"/>
      <path id="Tracé_37651" data-name="Tracé 37651" d="M1039.288,308.36a6.1,6.1,0,1,0,6.1,6.1A6.105,6.105,0,0,0,1039.288,308.36Z" transform="translate(-534.135 -237.066)" fill="#0e77ff"/>
      <path id="Tracé_37652" data-name="Tracé 37652" d="M964.765,319.3a6.275,6.275,0,0,0-1.229-.122,6.1,6.1,0,0,0,0,12.207,6.03,6.03,0,0,0,1.229-.125,6.106,6.106,0,0,0,0-11.96Z" transform="translate(-707.906 -212.241)" fill="#0e77ff"/>
      <path id="Tracé_37653" data-name="Tracé 37653" d="M974.358,319.182a6.1,6.1,0,1,0,6.1,6.1A6.1,6.1,0,0,0,974.358,319.182Z" transform="translate(-683.081 -212.241)" fill="#0e77ff"/>
      <path id="Tracé_37654" data-name="Tracé 37654" d="M985.18,319.182a6.1,6.1,0,1,0,6.1,6.1A6.1,6.1,0,0,0,985.18,319.182Z" transform="translate(-658.258 -212.241)" fill="#0e77ff"/>
      <path id="Tracé_37655" data-name="Tracé 37655" d="M996,319.182a6.1,6.1,0,1,0,6.1,6.1A6.1,6.1,0,0,0,996,319.182Z" transform="translate(-633.433 -212.241)" fill="#0e77ff"/>
      <path id="Tracé_37656" data-name="Tracé 37656" d="M1006.824,319.182a6.1,6.1,0,1,0,6.1,6.1A6.1,6.1,0,0,0,1006.824,319.182Z" transform="translate(-608.608 -212.241)" fill="#0e77ff"/>
      <path id="Tracé_37657" data-name="Tracé 37657" d="M1017.646,319.182a6.1,6.1,0,1,0,6.1,6.1A6.1,6.1,0,0,0,1017.646,319.182Z" transform="translate(-583.783 -212.241)" fill="#0e77ff"/>
      <path id="Tracé_37658" data-name="Tracé 37658" d="M1028.47,319.182a6.1,6.1,0,1,0,6.1,6.1A6.1,6.1,0,0,0,1028.47,319.182Z" transform="translate(-558.96 -212.241)" fill="#0e77ff"/>
      <path id="Tracé_37659" data-name="Tracé 37659" d="M1039.288,319.182a6.1,6.1,0,1,0,6.1,6.1A6.1,6.1,0,0,0,1039.288,319.182Z" transform="translate(-534.135 -212.241)" fill="#0e77ff"/>
    </g>
  </g>
</svg>
